<svg xmlns="http://www.w3.org/2000/svg" width="800" height="800" viewBox="0 0 800 800">
  <style>
    .contour { fill: none; stroke: #4f46e5; stroke-width: 1.4; opacity: 0.22; stroke-linecap: round; stroke-linejoin: round; }
    .contour-bold { fill: none; stroke: #4f46e5; stroke-width: 2.0; opacity: 0.32; stroke-linecap: round; stroke-linejoin: round; }
  </style>

  <!-- Hilltop Alpha (Top-Left) Concentric Contours -->
  <path class="contour" d="M120 120 C135 105 155 110 165 130 C175 150 160 170 140 165 C120 160 110 135 120 120 Z"/>
  <path class="contour" d="M100 100 C125 75 175 85 190 120 C205 155 185 195 150 185 C115 175 80 130 100 100 Z"/>
  <path class="contour-bold" d="M80 80 C115 50 195 60 215 110 C235 160 210 220 160 205 C110 190 50 120 80 80 Z"/>
  <path class="contour" d="M60 60 C105 25 215 35 240 100 C265 165 235 245 170 225 C105 205 20 110 60 60 Z"/>
  <path class="contour" d="M40 40 C95 0 235 10 265 90 C295 170 260 270 180 245 C100 220 -10 100 40 40 Z"/>
  <path class="contour" d="M20 20 C85 -25 255 -15 290 80 C325 175 285 295 190 265 C95 235 -40 90 20 20 Z"/>

  <!-- Hilltop Beta (Center-Right) Concentric Contours -->
  <path class="contour" d="M540 280 C560 265 590 270 600 290 C610 310 595 330 575 325 C555 320 525 300 540 280 Z"/>
  <path class="contour" d="M515 255 C545 235 615 240 630 275 C645 310 625 355 585 345 C545 335 490 280 515 255 Z"/>
  <path class="contour-bold" d="M490 230 C530 205 640 210 660 260 C680 310 655 380 595 365 C535 350 460 260 490 230 Z"/>
  <path class="contour" d="M465 205 C515 175 665 180 690 245 C715 310 685 405 605 385 C525 365 430 240 465 205 Z"/>
  <path class="contour" d="M440 180 C500 145 690 150 720 230 C750 310 715 430 615 405 C515 380 400 220 440 180 Z"/>

  <!-- Hilltop Gamma (Bottom-Left) Concentric Contours -->
  <path class="contour" d="M240 620 C260 600 290 610 300 630 C310 655 290 675 270 670 C245 665 220 640 240 620 Z"/>
  <path class="contour" d="M210 590 C240 565 320 575 335 610 C350 650 320 705 280 695 C235 680 185 620 210 590 Z"/>
  <path class="contour-bold" d="M180 560 C220 530 350 540 370 590 C390 645 350 735 290 720 C225 700 150 600 180 560 Z"/>
  <path class="contour" d="M150 530 C200 495 380 505 405 570 C430 640 380 765 300 745 C215 720 115 580 150 530 Z"/>
  <path class="contour" d="M120 500 C180 460 410 470 440 550 C470 635 410 795 310 770 C205 740 80 560 120 500 Z"/>

  <!-- Hilltop Delta (Bottom-Right) Concentric Contours -->
  <path class="contour" d="M680 640 C700 620 730 630 740 650 C750 670 730 690 710 685 C685 680 665 660 680 640 Z"/>
  <path class="contour" d="M650 610 C680 585 760 595 775 630 C790 670 760 725 720 715 C675 700 625 640 650 610 Z"/>
  <path class="contour-bold" d="M620 580 C660 550 790 560 810 610 C830 665 790 755 730 740 C665 720 590 620 620 580 Z"/>

  <!-- Flowing Terrain Traverse Contours (Seamless Repeating Flows) -->
  <path class="contour" d="M0 80 C120 50 220 110 350 80 C480 50 620 110 800 70"/>
  <path class="contour" d="M0 160 C140 130 250 180 390 140 C530 100 670 180 800 150"/>
  <path class="contour-bold" d="M0 250 C110 280 280 230 420 270 C560 310 690 240 800 260"/>
  <path class="contour" d="M0 330 C130 370 290 310 440 350 C590 390 710 320 800 340"/>
  <path class="contour" d="M0 420 C160 390 320 450 480 410 C640 370 730 440 800 420"/>
  <path class="contour-bold" d="M0 500 C150 530 300 480 460 520 C620 560 710 490 800 510"/>
  <path class="contour" d="M0 590 C120 620 280 570 430 610 C580 650 700 580 800 600"/>
  <path class="contour" d="M0 680 C140 650 310 710 470 670 C630 630 720 700 800 680"/>
  <path class="contour" d="M0 760 C160 790 330 740 490 780 C650 820 730 750 800 770"/>

  <!-- Vertical & Diagonal Interlocking Ridgelines -->
  <path class="contour" d="M280 0 C310 140 270 260 330 380 C390 500 350 640 380 800"/>
  <path class="contour" d="M480 0 C450 130 510 270 470 400 C430 530 490 660 460 800"/>
  <path class="contour" d="M0 380 Q160 440 320 370 T640 430 T800 390"/>
</svg>
